<?xml version="1.0" encoding="UTF-8" standalone="no"?>
<!-- Created with Inkscape (http://www.inkscape.org/) -->

<svg
   width="128"
   height="128"
   viewBox="0 0 128 128"
   version="1.1"
   id="svg1"
   inkscape:version="1.3 (0e150ed, 2023-07-21)"
   sodipodi:docname="Icon_back.svg"
   inkscape:export-filename="../UI/Buttons/Icon_button/Icon_button_1.png"
   inkscape:export-xdpi="96"
   inkscape:export-ydpi="96"
   xmlns:inkscape="http://www.inkscape.org/namespaces/inkscape"
   xmlns:sodipodi="http://sodipodi.sourceforge.net/DTD/sodipodi-0.dtd"
   xmlns:xlink="http://www.w3.org/1999/xlink"
   xmlns="http://www.w3.org/2000/svg"
   xmlns:svg="http://www.w3.org/2000/svg">
  <sodipodi:namedview
     id="namedview1"
     pagecolor="#505050"
     bordercolor="#ffffff"
     borderopacity="1"
     inkscape:showpageshadow="0"
     inkscape:pageopacity="0"
     inkscape:pagecheckerboard="1"
     inkscape:deskcolor="#505050"
     inkscape:document-units="px"
     inkscape:zoom="4.234375"
     inkscape:cx="58.450184"
     inkscape:cy="83.719557"
     inkscape:window-width="1920"
     inkscape:window-height="1013"
     inkscape:window-x="0"
     inkscape:window-y="0"
     inkscape:window-maximized="1"
     inkscape:current-layer="layer1" />
  <defs
     id="defs1">
    <pattern
       inkscape:collect="always"
       xlink:href="#halftones"
       preserveAspectRatio="xMidYMid"
       id="pattern23"
       patternTransform="matrix(0.25,0.4330127,-0.4330127,0.25,0,0)"
       x="0"
       y="0" />
    <pattern
       patternUnits="userSpaceOnUse"
       width="10"
       height="10"
       preserveAspectRatio="xMidYMid"
       style="fill:#cccccc"
       id="halftones"
       x="0"
       y="0"
       inkscape:label="Halftones"
       inkscape:collect="always"
       inkscape:isstock="true">
      <g
         id="fullPattern"
         style="display:inline"
         transform="scale(0.1)">
        <circle
           style="fill-opacity:1;stroke:none;paint-order:markers fill stroke;stop-color:#000000"
           id="circle10"
           cx="50"
           cy="50"
           r="25" />
        <path
           id="circle37"
           style="paint-order:markers fill stroke"
           d="M 25,0 A 25,25 0 0 1 0,25 25,25 0 0 1 -25,0 25,25 0 0 1 0,-25 25,25 0 0 1 25,0 Z" />
        <path
           id="circle39"
           style="paint-order:markers fill stroke"
           d="M 125,0 A 25,25 0 0 1 100,25 25,25 0 0 1 75,0 25,25 0 0 1 100,-25 25,25 0 0 1 125,0 Z" />
        <path
           id="circle43"
           style="paint-order:markers fill stroke"
           d="M 25,100 A 25,25 0 0 1 0,125 25,25 0 0 1 -25,100 25,25 0 0 1 0,75 25,25 0 0 1 25,100 Z" />
        <path
           id="circle45"
           style="paint-order:markers fill stroke"
           d="m 125,100 a 25,25 0 0 1 -25,25 25,25 0 0 1 -25,-25 25,25 0 0 1 25,-25 25,25 0 0 1 25,25 z" />
      </g>
    </pattern>
    <clipPath
       clipPathUnits="userSpaceOnUse"
       id="clipPath18">
      <path
         id="path18"
         style="stroke-width:0.1;stroke-linecap:square;paint-order:markers fill stroke;stop-color:#000000"
         d="m -880.82767,-187.29769 h 1640.84 v 73.28155 h -1640.84 z" />
    </clipPath>
    <clipPath
       clipPathUnits="userSpaceOnUse"
       id="clipPath25">
      <rect
         style="fill:#ff0000;stroke:none;stroke-width:3;stroke-linecap:square;stroke-linejoin:miter;paint-order:stroke markers fill;stop-color:#000000"
         id="rect25-8"
         width="78"
         height="45.033199"
         x="763.61322"
         y="452.82422" />
    </clipPath>
    <clipPath
       clipPathUnits="userSpaceOnUse"
       id="clipPath5">
      <path
         id="path5"
         style="stroke-width:0.1;stroke-linecap:square;paint-order:markers fill stroke;stop-color:#000000"
         d="M 438.25066,553.76374 H 1298.1212 V 755.15928 H 438.25066 Z"
         sodipodi:nodetypes="ccccc" />
    </clipPath>
    <clipPath
       clipPathUnits="userSpaceOnUse"
       id="clipPath52">
      <path
         id="path52"
         style="stroke-width:0.1;stroke-linecap:square;paint-order:markers fill stroke;stop-color:#000000"
         d="m -880.82767,-187.29769 h 1640.84 v 73.28155 h -1640.84 z" />
    </clipPath>
    <clipPath
       clipPathUnits="userSpaceOnUse"
       id="clipPath25-9">
      <rect
         style="fill:#ff0000;stroke:none;stroke-width:3;stroke-linecap:square;stroke-linejoin:miter;paint-order:stroke markers fill;stop-color:#000000"
         id="rect25-8-1"
         width="78"
         height="45.033199"
         x="763.61322"
         y="452.82422" />
    </clipPath>
  </defs>
  <g
     inkscape:label="Layer 1"
     inkscape:groupmode="layer"
     id="layer1">
    <g
       id="g23"
       transform="matrix(2.6522084,0,0,2.6522084,0.49497012,0.62246172)">
      <path
         id="rect6-7"
         style="fill:#ffffff;fill-opacity:1;stroke:#808080;stroke-width:2.13696;stroke-linecap:round;stroke-linejoin:round;stroke-opacity:1"
         d="M 7.0450349,3.9999997 42.405341,2.4389776 c 1.685308,-0.0744 3.510681,1.4238711 3.423657,3.1085742 L 44,40.954965 c -0.08702,1.684703 -1.359325,2.98039 -3.045035,3.045034 L 5.649583,45.353904 C 3.9638727,45.418554 1.9667617,43.936894 2.0595945,42.252501 L 4,7.0450346 C 4.092833,5.3606415 5.359727,4.0743996 7.0450349,3.9999997 Z"
         sodipodi:nodetypes="sssssssss" />
      <path
         id="rect6"
         style="fill:url(#pattern23);fill-opacity:1;stroke:#333333;stroke-width:2.13696;stroke-linecap:round;stroke-linejoin:round;stroke-opacity:1"
         d="M 7.0450349,4 42.405341,2.4389779 c 1.685308,-0.0744 3.510681,1.4238711 3.423657,3.1085742 L 44,40.954965 C 43.912975,42.639668 42.640675,43.935356 40.954965,44 L 5.649583,45.353905 C 3.9638727,45.41855 1.9667617,43.936894 2.0595945,42.252501 L 4,7.0450349 C 4.0928327,5.3606418 5.359727,4.0743999 7.0450349,4 Z"
         sodipodi:nodetypes="sssssssss" />
    </g>
  </g>
</svg>
